<svg xmlns="http://www.w3.org/2000/svg" viewBox="0 0 66 66"><defs><style>.a{fill:#f1c40f;stroke:#707070;}</style></defs><g transform="translate(0.5 0.5)"><path class="a" d="M56.027,122.059a1.875,1.875,0,0,0,1.875-1.875v-3.125h3.75v3.125a1.875,1.875,0,0,0,3.75,0v-10a1.875,1.875,0,0,0-3.75,0v3.125H57.9v-3.125a1.875,1.875,0,0,0-3.75,0v10A1.875,1.875,0,0,0,56.027,122.059Zm0,0" transform="translate(-47.278 -94.559)"/><path class="a" d="M174.184,57.9h2.5a1.875,1.875,0,0,0,0-3.75h-2.5a1.875,1.875,0,0,0,0,3.75Zm0,0" transform="translate(-150.434 -47.278)"/><path class="a" d="M63.527,349.537a1.875,1.875,0,0,0-1.875,1.875v4.375l-4.125-5.5a1.875,1.875,0,0,0-3.375,1.125v10a1.875,1.875,0,1,0,3.75,0v-4.375l4.125,5.5a1.875,1.875,0,0,0,3.375-1.125v-10A1.875,1.875,0,0,0,63.527,349.537Zm0,0" transform="translate(-47.278 -305.162)"/><path class="a" d="M176.684,295.383h-2.5a1.875,1.875,0,0,0,0,3.75h2.5a1.875,1.875,0,0,0,0-3.75Zm0,0" transform="translate(-150.434 -257.883)"/><path class="a" d="M59.375,30.625h-25v-25A5.631,5.631,0,0,0,28.75,0H5.625A5.631,5.631,0,0,0,0,5.625V28.75A5.6,5.6,0,0,0,1.437,32.5,5.6,5.6,0,0,0,0,36.25V59.375A5.631,5.631,0,0,0,5.625,65H28.75a5.6,5.6,0,0,0,3.75-1.437A5.6,5.6,0,0,0,36.25,65H59.375A5.631,5.631,0,0,0,65,59.375V36.25A5.631,5.631,0,0,0,59.375,30.625ZM3.75,5.625A1.877,1.877,0,0,1,5.625,3.75H28.75a1.877,1.877,0,0,1,1.875,1.875v25h-25A1.877,1.877,0,0,1,3.75,28.75Zm25,55.625H5.625A1.877,1.877,0,0,1,3.75,59.375V36.25a1.877,1.877,0,0,1,1.875-1.875h25v25A1.877,1.877,0,0,1,28.75,61.25Zm32.5-1.875a1.877,1.877,0,0,1-1.875,1.875H36.25a1.877,1.877,0,0,1-1.875-1.875v-25h25A1.877,1.877,0,0,1,61.25,36.25Zm0,0"/><path class="a" d="M304.758,349.539h-7.5a1.875,1.875,0,0,0-1.875,1.875v10a1.875,1.875,0,1,0,3.75,0v-3.125h3.75a1.875,1.875,0,0,0,0-3.75h-3.75v-1.25h5.625a1.875,1.875,0,1,0,0-3.75Zm0,0" transform="translate(-257.883 -305.164)"/><path class="a" d="M417.914,295.383h-2.5a1.875,1.875,0,1,0,0,3.75h2.5a1.875,1.875,0,1,0,0-3.75Zm0,0" transform="translate(-361.039 -257.883)"/></g></svg>